# xmcd
#
# Track frame offsets:
#	150
#	15275
#	27936
#	41713
#	55072
#	69292
#	84648
#	96605
#	110606
#	130557
#	146122
#	158921
#	173552
#	196861
#	212897
#	228599
#	240579
#	251333
#	266306
#	283959
#
# Disc length: 3920
#
# Revision: 1
# Processed by: cddbd v1.5.1PL0 Copyright (c) Steve Scherf et al.
# Submitted via: CDex 1.51
# Normalized: r0:TDELIM( - )
#
DISCID=150f4e14
DTITLE=Mega Jazz - CD 3
DYEAR=1900
DGENRE=Jazz
TTITLE0=Charlie Parker and Dizzy Gillespie - Love Come Back To Me
TTITLE1=Count Basie - Lonely Street
TTITLE2=Ben Webster - I Surrender Dear
TTITLE3=Colleman Hawkins - Indian Summer
TTITLE4=Charlie christian - Flying Home
TTITLE5=Dinah Washington - Smoke Gets In Your Eyes
TTITLE6=Dizzy Gillespie - Grooving High
TTITLE7=Django Reinhard and Stephane Grappelli - Swing 4 I
TTITLE8=Steve Kuhn - Eiderdown
TTITLE9=Billie Holiday - I Can't Give You Anything But Love
TTITLE10=Benny Goodman - Beyound The Moon
TTITLE11=Duke Ellington - Jack The Bear
TTITLE12=Lester Young - Sweet Georgia Brown
TTITLE13=Glenn Miller - In The Mood
TTITLE14=Lee Morgan - Just In time
TTITLE15=Errol Garnier - Fast Company
TTITLE16=Lionel Hamption and His Orchestra - Just in Vibes
TTITLE17=Louis Armstrong - St. James Infirmary
TTITLE18=Roy Eldridge - Body And Soul
TTITLE19=Thelonious Monk - Just A Gigolo
EXTD=
EXTT0=
EXTT1=
EXTT2=
EXTT3=
EXTT4=
EXTT5=
EXTT6=
EXTT7=
EXTT8=
EXTT9=
EXTT10=
EXTT11=
EXTT12=
EXTT13=
EXTT14=
EXTT15=
EXTT16=
EXTT17=
EXTT18=
EXTT19=
PLAYORDER=
